<svg viewBox="0 0 150 51" xmlns="http://www.w3.org/2000/svg" xmlns:xlink="http://www.w3.org/1999/xlink"><defs><linearGradient x1="0%" y1="50%" x2="100%" y2="50%" id="b"><stop stop-color="#3EAD5F" offset="0%"/><stop stop-color="#24AE85" offset="100%"/></linearGradient><path d="M14.318 15.374L3.5 9.964a.71.71 0 01-.4-.646.71.71 0 01.4-.646l13.637-6.819a3.869 3.869 0 011.728-.405 3.87 3.87 0 011.728.405L31.08 7.098a5.184 5.184 0 00-.918.354l-15.844 7.922zm19.91 11.48a3.843 3.843 0 012.136 3.455v8.018a3.86 3.86 0 01-.542 1.981 2.079 2.079 0 00-.984-1.038L3.499 23.601a3.843 3.843 0 01-2.135-3.456v-8.018c0-.715.193-1.395.542-1.98.19.442.533.812.984 1.037l31.338 15.67zm.002 14.928l-.002.001-13.636 6.818a3.874 3.874 0 01-1.728.406 3.87 3.87 0 01-1.728-.406L6.647 43.357c.314-.088.622-.207.918-.355l15.844-7.922 10.819 5.41c.25.125.4.367.4.646a.71.71 0 01-.398.646zm-30.73.001a3.843 3.843 0 01-2.136-3.456v-7.15c0-.555.282-1.06.754-1.353a1.58 1.58 0 011.548-.07l13.673 6.837-10.384 5.192a3.884 3.884 0 01-3.456 0zM34.227 8.672a3.843 3.843 0 012.136 3.455v7.15a1.58 1.58 0 01-.755 1.353 1.58 1.58 0 01-1.548.07l-13.673-6.836 10.384-5.192a3.884 3.884 0 013.456 0zM33.45 21.92a2.935 2.935 0 002.875-.13 2.936 2.936 0 001.401-2.513v-7.15a5.199 5.199 0 00-2.89-4.675L21.202.634a5.23 5.23 0 00-2.337-.549 5.23 5.23 0 00-2.338.549L2.89 7.452l-.004.002A5.199 5.199 0 000 12.127v8.018a5.199 5.199 0 002.89 4.676l18.995 9.497-3.021 1.51-14.588-7.293a2.935 2.935 0 00-2.875.13A2.936 2.936 0 000 31.176v7.15a5.199 5.199 0 002.89 4.675l13.636 6.819a5.23 5.23 0 002.338.549 5.23 5.23 0 002.337-.55l13.637-6.818.004-.001a5.199 5.199 0 002.885-4.674v-8.018a5.199 5.199 0 00-2.89-4.675l-18.994-9.498 3.02-1.51 14.588 7.294z" id="a"/></defs><g fill="none" fill-rule="evenodd"><mask id="c" fill="#fff"><use xlink:href="#a"/></mask><path d="M14.318 15.374L3.5 9.964a.71.71 0 01-.4-.646.71.71 0 01.4-.646l13.637-6.819a3.869 3.869 0 011.728-.405 3.87 3.87 0 011.728.405L31.08 7.098a5.184 5.184 0 00-.918.354l-15.844 7.922zm19.91 11.48a3.843 3.843 0 012.136 3.455v8.018a3.86 3.86 0 01-.542 1.981 2.079 2.079 0 00-.984-1.038L3.499 23.601a3.843 3.843 0 01-2.135-3.456v-8.018c0-.715.193-1.395.542-1.98.19.442.533.812.984 1.037l31.338 15.67zm.002 14.928l-.002.001-13.636 6.818a3.874 3.874 0 01-1.728.406 3.87 3.87 0 01-1.728-.406L6.647 43.357c.314-.088.622-.207.918-.355l15.844-7.922 10.819 5.41c.25.125.4.367.4.646a.71.71 0 01-.398.646zm-30.73.001a3.843 3.843 0 01-2.136-3.456v-7.15c0-.555.282-1.06.754-1.353a1.58 1.58 0 011.548-.07l13.673 6.837-10.384 5.192a3.884 3.884 0 01-3.456 0zM34.227 8.672a3.843 3.843 0 012.136 3.455v7.15a1.58 1.58 0 01-.755 1.353 1.58 1.58 0 01-1.548.07l-13.673-6.836 10.384-5.192a3.884 3.884 0 013.456 0zM33.45 21.92a2.935 2.935 0 002.875-.13 2.936 2.936 0 001.401-2.513v-7.15a5.199 5.199 0 00-2.89-4.675L21.202.634a5.23 5.23 0 00-2.337-.549 5.23 5.23 0 00-2.338.549L2.89 7.452l-.004.002A5.199 5.199 0 000 12.127v8.018a5.199 5.199 0 002.89 4.676l18.995 9.497-3.021 1.51-14.588-7.293a2.935 2.935 0 00-2.875.13A2.936 2.936 0 000 31.176v7.15a5.199 5.199 0 002.89 4.675l13.636 6.819a5.23 5.23 0 002.338.549 5.23 5.23 0 002.337-.55l13.637-6.818.004-.001a5.199 5.199 0 002.885-4.674v-8.018a5.199 5.199 0 00-2.89-4.675l-18.994-9.498 3.02-1.51 14.588 7.294z" fill="url(#b)" mask="url(#c)"/><path d="M55.135 21.493l-2.457 6.24h4.89l-2.433-6.24zm-3.882 9.803l-1.18 3.022h-4.618l7.665-18.182h4.005l7.617 18.182h-4.595l-1.179-3.022h-7.715zm22.222-6.314c1.646 0 2.605-1.008 2.605-2.654 0-1.572-1.032-2.629-2.605-2.629h-2.997v5.283h2.997zm.467-8.846c3.931 0 6.585 2.433 6.585 6.045 0 3.784-2.728 6.363-6.806 6.363h-3.243v5.774h-4.325V16.136h7.789zm8.515 18.182h4.324V16.136h-4.324zm18.638-8.328l-1.106-.37c-2.752-.884-4.349-2.113-4.349-4.742 0-2.948 2.31-4.987 5.7-4.987 2.089 0 3.833.688 5.185 2.088l-.86 1.302c-1.204-1.228-2.63-1.842-4.325-1.842-2.26 0-3.759 1.277-3.759 3.17 0 1.842 1.155 2.554 3.342 3.316l1.105.369c1.548.516 2.801 1.18 3.76 1.94.958.787 1.425 1.893 1.425 3.342 0 2.949-2.408 4.988-6.02 4.988-2.236 0-4.177-.713-5.43-2.113l.737-1.327c1.204 1.253 2.728 1.892 4.57 1.892 2.58 0 4.202-1.278 4.202-3.243 0-1.892-1.401-2.875-4.177-3.784m19.92 8.329h-1.695l-.05-2.162c-.81 1.548-2.383 2.408-4.545 2.408-3.096 0-5.16-2.089-5.16-5.037v-8.206h1.77v7.862c0 2.334 1.572 3.857 3.955 3.857s3.956-1.523 3.956-3.857v-7.862h1.769v12.997m3.399 0h1.769V21.321h-1.77v12.997zm-.32-17.445c0-.688.516-1.203 1.204-1.203.664 0 1.18.515 1.18 1.203 0 .664-.516 1.18-1.18 1.18-.688 0-1.203-.516-1.203-1.18zm12.872 15.701v1.45c-.835.368-1.892.54-3.145.54-2.088 0-3.513-1.45-3.513-3.587v-8.182h-2.26V21.32h2.26v-3.809h1.769v3.809h4.693v1.474h-4.693v7.838c0 1.4.933 2.407 2.285 2.407.909 0 1.793-.147 2.604-.466m2.616-5.355h8.575c-.172-2.924-1.793-4.718-4.275-4.718s-4.103 1.794-4.3 4.718zm10.393 1.253h-10.368c.197 2.874 1.77 4.668 4.324 4.668 1.696 0 3.145-.836 4.202-2.212l1.35.762c-1.252 1.868-3.218 2.875-5.552 2.875-3.71 0-6.216-2.727-6.216-6.757 0-4.03 2.457-6.732 6.167-6.732 3.661 0 6.118 2.654 6.118 6.585 0 .344 0 .614-.025.81z" fill="#16212C"/></g></svg>