<?xml version="1.0" encoding="UTF-8"?>
<svg width="1536px" height="1024px" viewBox="0 0 1536 1024" version="1.1" xmlns="http://www.w3.org/2000/svg" xmlns:xlink="http://www.w3.org/1999/xlink" style="background: #F5F5F5;">
    <title>Backgrounds / Secondary Space</title>
    <defs>
        <radialGradient cx="50%" cy="50%" fx="50%" fy="50%" r="59.9649206%" gradientTransform="translate(0.500000,0.500000),scale(0.666667,1.000000),rotate(180.000000),translate(-0.500000,-0.500000)" id="radialGradient-1">
            <stop stop-color="#14283B" stop-opacity="0.8" offset="0%"></stop>
            <stop stop-color="#081624" offset="100%"></stop>
        </radialGradient>
        <linearGradient x1="100%" y1="50%" x2="-23.2075738%" y2="50%" id="linearGradient-2">
            <stop stop-color="#117D7D" offset="0%"></stop>
            <stop stop-color="#2FC0A7" offset="52.8678989%"></stop>
            <stop stop-color="#C8DC8C" offset="100%"></stop>
        </linearGradient>
    </defs>
    <g id="Backgrounds-/-Secondary-Space" stroke="none" stroke-width="1" fill="none" fill-rule="evenodd">
        <rect fill="#F5F5F5" x="0" y="0" width="1536" height="1024"></rect>
        <rect id="Rectangle" fill="#32C896" x="0" y="0" width="1536" height="1024"></rect>
        <rect id="Rectangle" fill="url(#radialGradient-1)" x="0" y="0" width="1536" height="1024"></rect>
        <g id="stars" transform="translate(157.000000, 37.000000)">
            <circle id="Oval" fill="#2B464A" cx="1284" cy="458" r="28"></circle>
            <circle id="Oval" fill="#5E99AC" cx="108" cy="762" r="22"></circle>
            <circle id="Oval" fill="#2B464A" cx="426" cy="440" r="10"></circle>
            <circle id="Oval" fill="#32C896" cx="844" cy="698" r="8"></circle>
            <circle id="Oval" fill="#344E7B" cx="888" cy="72" r="24"></circle>
            <circle id="Oval" fill="#32C896" cx="1044" cy="828" r="8"></circle>
            <circle id="Oval" fill="#DDDDDD" cx="840" cy="514" r="4"></circle>
            <circle id="Oval" fill="#DDDDDD" cx="100" cy="136" r="4"></circle>
            <circle id="Oval" fill="#DDDDDD" cx="1140" cy="534" r="4"></circle>
            <circle id="Oval" fill-opacity="0.2" fill="#2DB7BA" cx="1134" cy="718" r="8"></circle>
            <circle id="Oval" fill-opacity="0.2" fill="#DDDDDD" cx="930" cy="404" r="4"></circle>
            <circle id="Oval" fill-opacity="0.2" fill="#DDDDDD" cx="190" cy="4" r="4"></circle>
            <circle id="Oval" fill-opacity="0.2" fill="#DDDDDD" cx="1230" cy="424" r="4"></circle>
            <circle id="Oval" fill="#DDDDDD" cx="600" cy="774" r="4"></circle>
            <circle id="Oval" fill="#32C896" cx="8" cy="518" r="8"></circle>
            <circle id="Oval" fill="#32C896" cx="1108" cy="264" r="8"></circle>
        </g>
        <g id="milky-cloud-1" fill="#19B3EE">
            <path d="M208.079054,161.498757 C208.079054,161.498757 274.931295,178.967524 297.216344,219.729438 C319.501394,260.489896 368.91392,331.334483 483.239972,298.338892 C597.566024,265.343302 757.430079,378.890291 757.430079,378.890291 C757.430079,378.890291 1016.11919,577.597523 1239.92886,467.68986 C1373.48801,402.100461 1475.46384,315.266128 1536,255.892698 L1536,0 L1230.99392,0 C1157.97383,25.4898434 1077.93135,64.1424033 998.679471,122.680244 C738.537055,314.838143 588.846167,189.643853 588.846167,189.643853 C588.846167,189.643853 549.606808,140.149011 427.528802,170.719355 C341.786443,192.191382 272.536241,72.9088132 238.90375,0 L0,0 C6.58639907,9.45351475 12.4228904,19.6057802 17.2129988,30.4829995 C60.8122865,129.472683 208.079054,161.498757 208.079054,161.498757" id="Fill-1" opacity="0.1"></path>
            <path d="M1092.90085,220.375203 C1092.90085,220.375203 978.760586,334.882229 1156.74255,346.527109 C1289.31856,355.202546 1458.35978,249.382602 1536,194.813234 L1536,45.3802999 C1245.79593,42.7077997 1092.90085,220.375203 1092.90085,220.375203" id="Fill-2" opacity="0.12"></path>
        </g>
        <g id="milky-cloud-2" transform="translate(0.000000, 432.000000)" fill="#19B3EE">
            <path d="M1135.96001,150.933708 C1135.96001,150.933708 1014.61599,208.165294 920.919982,116.904116 C827.223969,25.6429387 696.663952,1.92534456 696.663952,1.92534456 C696.663952,1.92534456 601.431939,-9.93345252 528.21593,35.4393363 C454.99992,80.8121251 219.479888,8.11254303 219.479888,8.11254303 C219.479888,8.11254303 120.29544,-20.890981 0,34.6267509 L0,553.926156 C70.2648414,550.86143 213.751632,529.379477 325.975903,413.373631 C480.599923,253.538082 559.447934,222.60209 690.519951,281.380476 C821.591969,340.158861 889.175978,272.099678 889.175978,272.099678 C889.175978,272.099678 1019.224,194.477148 1057.112,304.442227 C1095,414.40483 1192.28002,516.493605 1192.28002,516.493605 C1192.28002,516.493605 1280.34403,627.863178 1444.18405,591.771187 C1485.77689,582.607946 1515.2087,582.692504 1536,587.904188 L1536,158.913131 C1481.94713,185.951189 1391.62212,218.30405 1318.23203,181.3541 C1205.59202,124.638114 1135.96001,150.933708 1135.96001,150.933708 Z" id="Fill-1" opacity="0.1"></path>
            <path d="M324.18266,314.465812 C324.18266,314.465812 350.088312,277.307555 350.088312,219.505823 C350.088312,161.70409 279.186266,117.663299 279.186266,117.663299 C279.186266,117.663299 158.6082,35.7479219 0,114.562649 L0,459.333056 C60.0926849,454.971089 243.812964,432.141469 324.18266,314.465812" id="Fill-2" opacity="0.12"></path>
        </g>
        <path d="M0.0964653897,0 L0.0964653897,344.94611 C0.0634640721,344.956253 0.0330013175,344.963861 0,344.974004 L0,423.369487 C3.63522205,424.426911 7.4760677,425 11.4539957,425 C34.0345126,425 52.3426281,406.714415 52.3426281,384.158559 C52.3426281,378.813113 51.2840474,373.721246 49.4156651,369.040176 C53.0305787,369.826272 56.7774975,370.264963 60.6259588,370.264963 C81.9275477,370.264963 100.230586,357.611369 108.534225,339.443445 C121.790601,351.310944 139.301608,358.536932 158.503297,358.536932 C173.468125,358.536932 187.394681,354.1348 199.092379,346.586766 C200.328659,368.033468 218.08083,385.058765 239.859161,385.058765 C251.249692,385.058765 261.541026,380.400518 268.95363,372.897114 C278.089918,388.515047 295.009439,399.038577 314.424368,399.038577 C343.516299,399.038577 367.104625,375.476013 367.104625,346.416868 C367.104625,335.85023 363.959346,326.036721 358.595362,317.792866 C374.839626,310.682509 386.753102,295.62245 389.499827,277.537193 C396.18894,280.608035 403.606621,282.367873 411.45078,282.367873 C440.545249,282.367873 464.131037,258.807844 464.131037,229.74515 C464.131037,227.779912 464.004109,225.845104 463.793408,223.933118 C472.71138,227.673409 482.502617,229.74515 492.778719,229.74515 C534.152217,229.74515 567.689172,196.242287 567.689172,154.919046 C567.689172,148.876257 566.955527,143.013509 565.602473,137.389126 C585.669813,129.956724 600,110.717682 600,88.0882885 C600,67.1096941 587.677816,49.0497946 569.897721,40.598005 C572.982075,33.9085898 574.751454,26.4863312 574.751454,18.6380598 C574.751454,12.0652909 573.489788,5.79935275 571.283777,0 L0.0964653897,0 Z" id="space-cloud" fill="url(#linearGradient-2)" opacity="0.2"></path>
    </g>
</svg>