<?xml version="1.0" encoding="UTF-8"?>
<svg width="315px" height="266px" viewBox="0 0 315 266" version="1.1" xmlns="http://www.w3.org/2000/svg" xmlns:xlink="http://www.w3.org/1999/xlink">
    <title>Marketplace</title>
    <g id="10.-Marketplace" stroke="none" stroke-width="1" fill="none" fill-rule="evenodd">
        <g id="4.1.1-Marketplace-View---No-apps" transform="translate(-427.000000, -486.000000)">
            <g id="Marketplace" transform="translate(427.000000, 486.000000)">
                <rect id="Rectangle" stroke="#14283C" stroke-width="2" x="64" y="126.257648" width="49" height="31" rx="4"></rect>
                <rect id="Rectangle" stroke="#14283C" stroke-width="2" x="64" y="167.257648" width="49" height="31" rx="4"></rect>
                <rect id="Rectangle" stroke="#14283C" stroke-width="2" x="1" y="167.257648" width="49" height="31" rx="4"></rect>
                <rect id="Rectangle" stroke="#14283C" stroke-width="2" x="1" y="167.257648" width="49" height="31" rx="4"></rect>
                <rect id="Rectangle" stroke="#14283C" stroke-width="2" x="1" y="126.257648" width="49" height="31" rx="4"></rect>
                <rect id="Rectangle" stroke="#14283C" stroke-width="2" x="1" y="126.257648" width="49" height="31" rx="4"></rect>
                <rect id="Rectangle" stroke="#14283C" stroke-width="2" x="1" y="85.2576482" width="49" height="31" rx="4"></rect>
                <rect id="Rectangle" stroke="#14283C" stroke-width="2" x="1" y="85.2576482" width="49" height="31" rx="4"></rect>
                <rect id="Rectangle" stroke="#14283C" stroke-width="2" x="127" y="126.257648" width="49" height="31" rx="4"></rect>
                <rect id="Rectangle" stroke="#14283C" stroke-width="2" x="127" y="167.257648" width="49" height="31" rx="4"></rect>
                <rect id="Rectangle" stroke="#14283C" stroke-width="2" x="64" y="85.2576482" width="49" height="31" rx="4"></rect>
                <rect id="Rectangle" stroke="#14283C" stroke-width="2" x="127" y="85.2576482" width="49" height="31" rx="4"></rect>
                <path d="M158,114.257648 C160.209139,114.257648 162,116.048509 162,118.257648 L162,165.257648 C162,167.466787 160.209139,169.257648 158,169.257648 L81,169.257648 C78.790861,169.257648 77,167.466787 77,165.257648 L77,118.257648 C77,116.048509 78.790861,114.257648 81,114.257648 L158,114.257648 Z M125.10498,129.929523 L122.307129,129.929523 L113.913574,153.088703 L116.711426,153.088703 L125.10498,129.929523 Z M104.348145,135.11507 L92.0874023,140.564289 L92.0874023,143.391437 L104.348145,148.855304 L104.348145,145.295734 L95.7055664,142.014484 L104.348145,138.67464 L104.348145,135.11507 Z M135.095215,135.11507 L135.095215,138.616047 L144.147949,141.941242 L135.095215,145.339679 L135.095215,148.840656 L147.751465,143.391437 L147.751465,140.564289 L135.095215,135.11507 Z" id="Combined-Shape" fill="#1CBA91"></path>
                <path d="M119.280971,158.464244 C123.258764,161.801765 152.007357,167.216024 162.954621,176.53282 C173.901885,185.849615 196.515496,200.414185 210.232013,205.913708 C219.376358,209.580056 228.977521,222.278893 239.035502,244.010217 L281.531103,235.239235 C271.205412,218.60236 266.042567,206.605542 266.042567,199.248781 C266.042567,188.21364 262.971517,137.901144 267.769241,124.130131 C272.566966,110.359117 280.77264,60.6430599 277.342661,57.4190545 C273.912682,54.195049 260.686825,101.060108 257.670991,99.6220911 C254.655158,98.1840737 255.261465,22.3340439 246.714924,23.236786 C238.168383,24.1395282 241.051419,99.6220911 237.584401,99.6220911 C234.117383,99.6220911 212.19594,18.9767781 204.051231,21.1067821 C195.906523,23.236786 222.308821,109.419599 219.018623,111.294978 C215.728425,113.170357 194.541577,83.6854595 189.560342,83.6854595 C184.579107,83.6854595 142.448858,80.0890183 138.981946,78.9575145 C135.515035,77.8260108 135.929166,86.9655207 143.068372,90.3484214 C156.852873,93.6780477 177.371798,95.4871422 184.340083,99.6220911 C191.308368,103.75704 220.279777,139.917118 207.23672,154.340504 C194.193664,168.76389 181.144475,162.572745 158.187972,156.08296 C137.030073,148.974384 116.568551,152.528431 119.280971,158.464244 Z" id="hand" fill="#FFCF97" transform="translate(200.284628, 132.537768) rotate(-20.000000) translate(-200.284628, -132.537768) "></path>
            </g>
        </g>
    </g>
</svg>